<mxfile host="app.diagrams.net" modified="2024-06-07T00:22:36.051Z" agent="Mozilla/5.0 (Windows NT 10.0; Win64; x64) AppleWebKit/537.36 (KHTML, like Gecko) Chrome/125.0.0.0 Safari/537.36" etag="mvPWZ6tld-OKxlPI4-MQ" version="24.5.1" type="device">
  <diagram name="PÃ¡gina-1" id="egiI0ff7eLOxz5j8QAdj">
    <mxGraphModel dx="1567" dy="591" grid="1" gridSize="10" guides="1" tooltips="1" connect="1" arrows="1" fold="1" page="1" pageScale="1" pageWidth="827" pageHeight="1169" math="0" shadow="0">
      <root>
        <mxCell id="0" />
        <mxCell id="1" parent="0" />
        <mxCell id="N2f2klJ6p7CAeLHiZnP2-7" style="edgeStyle=orthogonalEdgeStyle;rounded=0;orthogonalLoop=1;jettySize=auto;html=1;verticalAlign=middle;endArrow=none;endFill=0;" edge="1" parent="1" source="N2f2klJ6p7CAeLHiZnP2-1" target="N2f2klJ6p7CAeLHiZnP2-3">
          <mxGeometry relative="1" as="geometry" />
        </mxCell>
        <mxCell id="N2f2klJ6p7CAeLHiZnP2-47" style="edgeStyle=orthogonalEdgeStyle;rounded=0;orthogonalLoop=1;jettySize=auto;html=1;exitX=1;exitY=0.5;exitDx=0;exitDy=0;entryX=0.5;entryY=0;entryDx=0;entryDy=0;" edge="1" parent="1" source="N2f2klJ6p7CAeLHiZnP2-1" target="N2f2klJ6p7CAeLHiZnP2-45">
          <mxGeometry relative="1" as="geometry" />
        </mxCell>
        <mxCell id="N2f2klJ6p7CAeLHiZnP2-64" style="edgeStyle=orthogonalEdgeStyle;rounded=0;orthogonalLoop=1;jettySize=auto;html=1;exitX=0.25;exitY=0;exitDx=0;exitDy=0;endArrow=oval;endFill=1;" edge="1" parent="1" source="N2f2klJ6p7CAeLHiZnP2-1">
          <mxGeometry relative="1" as="geometry">
            <mxPoint x="362.65517241379314" y="60" as="targetPoint" />
          </mxGeometry>
        </mxCell>
        <mxCell id="N2f2klJ6p7CAeLHiZnP2-65" style="edgeStyle=orthogonalEdgeStyle;rounded=0;orthogonalLoop=1;jettySize=auto;html=1;exitX=0.5;exitY=0;exitDx=0;exitDy=0;endArrow=oval;endFill=0;" edge="1" parent="1" source="N2f2klJ6p7CAeLHiZnP2-1">
          <mxGeometry relative="1" as="geometry">
            <mxPoint x="395.0689655172414" y="60" as="targetPoint" />
          </mxGeometry>
        </mxCell>
        <mxCell id="N2f2klJ6p7CAeLHiZnP2-66" style="edgeStyle=orthogonalEdgeStyle;rounded=0;orthogonalLoop=1;jettySize=auto;html=1;exitX=0.75;exitY=0;exitDx=0;exitDy=0;endArrow=oval;endFill=0;" edge="1" parent="1" source="N2f2klJ6p7CAeLHiZnP2-1">
          <mxGeometry relative="1" as="geometry">
            <mxPoint x="427.48275862068976" y="60" as="targetPoint" />
          </mxGeometry>
        </mxCell>
        <mxCell id="N2f2klJ6p7CAeLHiZnP2-67" style="edgeStyle=orthogonalEdgeStyle;rounded=0;orthogonalLoop=1;jettySize=auto;html=1;exitX=1;exitY=0;exitDx=0;exitDy=0;endArrow=oval;endFill=0;" edge="1" parent="1" source="N2f2klJ6p7CAeLHiZnP2-1">
          <mxGeometry relative="1" as="geometry">
            <mxPoint x="450" y="60" as="targetPoint" />
          </mxGeometry>
        </mxCell>
        <mxCell id="N2f2klJ6p7CAeLHiZnP2-1" value="Aluno" style="whiteSpace=wrap;html=1;aspect=fixed;" vertex="1" parent="1">
          <mxGeometry x="330" y="95" width="130" height="130" as="geometry" />
        </mxCell>
        <mxCell id="N2f2klJ6p7CAeLHiZnP2-51" style="edgeStyle=orthogonalEdgeStyle;rounded=0;orthogonalLoop=1;jettySize=auto;html=1;entryX=0.5;entryY=0;entryDx=0;entryDy=0;" edge="1" parent="1" source="N2f2klJ6p7CAeLHiZnP2-2" target="N2f2klJ6p7CAeLHiZnP2-46">
          <mxGeometry relative="1" as="geometry" />
        </mxCell>
        <mxCell id="N2f2klJ6p7CAeLHiZnP2-75" style="edgeStyle=orthogonalEdgeStyle;rounded=0;orthogonalLoop=1;jettySize=auto;html=1;exitX=0.25;exitY=0;exitDx=0;exitDy=0;endArrow=oval;endFill=1;" edge="1" parent="1" source="N2f2klJ6p7CAeLHiZnP2-2">
          <mxGeometry relative="1" as="geometry">
            <mxPoint x="710.2413793103449" y="60" as="targetPoint" />
          </mxGeometry>
        </mxCell>
        <mxCell id="N2f2klJ6p7CAeLHiZnP2-76" style="edgeStyle=orthogonalEdgeStyle;rounded=0;orthogonalLoop=1;jettySize=auto;html=1;exitX=0.5;exitY=0;exitDx=0;exitDy=0;endArrow=oval;endFill=0;" edge="1" parent="1" source="N2f2klJ6p7CAeLHiZnP2-2">
          <mxGeometry relative="1" as="geometry">
            <mxPoint x="739.8965517241379" y="50" as="targetPoint" />
          </mxGeometry>
        </mxCell>
        <mxCell id="N2f2klJ6p7CAeLHiZnP2-77" style="edgeStyle=orthogonalEdgeStyle;rounded=0;orthogonalLoop=1;jettySize=auto;html=1;exitX=0.75;exitY=0;exitDx=0;exitDy=0;endArrow=oval;endFill=0;" edge="1" parent="1" source="N2f2klJ6p7CAeLHiZnP2-2">
          <mxGeometry relative="1" as="geometry">
            <mxPoint x="770.2413793103449" y="60" as="targetPoint" />
          </mxGeometry>
        </mxCell>
        <mxCell id="N2f2klJ6p7CAeLHiZnP2-78" style="edgeStyle=orthogonalEdgeStyle;rounded=0;orthogonalLoop=1;jettySize=auto;html=1;exitX=1;exitY=0;exitDx=0;exitDy=0;endArrow=oval;endFill=0;" edge="1" parent="1" source="N2f2klJ6p7CAeLHiZnP2-2">
          <mxGeometry relative="1" as="geometry">
            <mxPoint x="799.8965517241379" y="60" as="targetPoint" />
          </mxGeometry>
        </mxCell>
        <mxCell id="N2f2klJ6p7CAeLHiZnP2-2" value="Curso" style="whiteSpace=wrap;html=1;aspect=fixed;" vertex="1" parent="1">
          <mxGeometry x="680" y="90" width="120" height="120" as="geometry" />
        </mxCell>
        <mxCell id="N2f2klJ6p7CAeLHiZnP2-68" style="edgeStyle=orthogonalEdgeStyle;rounded=0;orthogonalLoop=1;jettySize=auto;html=1;exitX=0.25;exitY=1;exitDx=0;exitDy=0;endArrow=oval;endFill=1;" edge="1" parent="1" source="N2f2klJ6p7CAeLHiZnP2-3">
          <mxGeometry relative="1" as="geometry">
            <mxPoint x="362.65517241379314" y="550" as="targetPoint" />
          </mxGeometry>
        </mxCell>
        <mxCell id="N2f2klJ6p7CAeLHiZnP2-69" style="edgeStyle=orthogonalEdgeStyle;rounded=0;orthogonalLoop=1;jettySize=auto;html=1;exitX=0.5;exitY=1;exitDx=0;exitDy=0;endArrow=oval;endFill=0;" edge="1" parent="1" source="N2f2klJ6p7CAeLHiZnP2-3">
          <mxGeometry relative="1" as="geometry">
            <mxPoint x="395.0689655172414" y="550" as="targetPoint" />
          </mxGeometry>
        </mxCell>
        <mxCell id="N2f2klJ6p7CAeLHiZnP2-70" style="edgeStyle=orthogonalEdgeStyle;rounded=0;orthogonalLoop=1;jettySize=auto;html=1;exitX=0.75;exitY=1;exitDx=0;exitDy=0;endArrow=oval;endFill=0;" edge="1" parent="1" source="N2f2klJ6p7CAeLHiZnP2-3">
          <mxGeometry relative="1" as="geometry">
            <mxPoint x="427.48275862068976" y="550" as="targetPoint" />
          </mxGeometry>
        </mxCell>
        <mxCell id="N2f2klJ6p7CAeLHiZnP2-3" value="Telefone" style="whiteSpace=wrap;html=1;aspect=fixed;" vertex="1" parent="1">
          <mxGeometry x="330" y="390" width="130" height="130" as="geometry" />
        </mxCell>
        <mxCell id="N2f2klJ6p7CAeLHiZnP2-14" style="edgeStyle=orthogonalEdgeStyle;rounded=0;orthogonalLoop=1;jettySize=auto;html=1;exitX=1;exitY=0.5;exitDx=0;exitDy=0;entryX=0;entryY=0.5;entryDx=0;entryDy=0;endArrow=none;endFill=0;" edge="1" parent="1" source="N2f2klJ6p7CAeLHiZnP2-18" target="N2f2klJ6p7CAeLHiZnP2-1">
          <mxGeometry relative="1" as="geometry" />
        </mxCell>
        <mxCell id="N2f2klJ6p7CAeLHiZnP2-60" style="edgeStyle=orthogonalEdgeStyle;rounded=0;orthogonalLoop=1;jettySize=auto;html=1;exitX=0.25;exitY=1;exitDx=0;exitDy=0;endArrow=oval;endFill=1;" edge="1" parent="1" source="N2f2klJ6p7CAeLHiZnP2-4">
          <mxGeometry relative="1" as="geometry">
            <mxPoint x="72.05882352941171" y="270" as="targetPoint" />
          </mxGeometry>
        </mxCell>
        <mxCell id="N2f2klJ6p7CAeLHiZnP2-61" style="edgeStyle=orthogonalEdgeStyle;rounded=0;orthogonalLoop=1;jettySize=auto;html=1;exitX=0.5;exitY=1;exitDx=0;exitDy=0;endArrow=oval;endFill=0;" edge="1" parent="1" source="N2f2klJ6p7CAeLHiZnP2-4">
          <mxGeometry relative="1" as="geometry">
            <mxPoint x="104.72413793103453" y="270" as="targetPoint" />
          </mxGeometry>
        </mxCell>
        <mxCell id="N2f2klJ6p7CAeLHiZnP2-62" style="edgeStyle=orthogonalEdgeStyle;rounded=0;orthogonalLoop=1;jettySize=auto;html=1;exitX=0.75;exitY=1;exitDx=0;exitDy=0;endArrow=oval;endFill=0;" edge="1" parent="1" source="N2f2klJ6p7CAeLHiZnP2-4">
          <mxGeometry relative="1" as="geometry">
            <mxPoint x="137.82758620689663" y="270" as="targetPoint" />
          </mxGeometry>
        </mxCell>
        <mxCell id="N2f2klJ6p7CAeLHiZnP2-4" value="UF" style="whiteSpace=wrap;html=1;aspect=fixed;" vertex="1" parent="1">
          <mxGeometry x="40" y="95" width="130" height="130" as="geometry" />
        </mxCell>
        <mxCell id="N2f2klJ6p7CAeLHiZnP2-9" value="(1,n)" style="text;html=1;align=center;verticalAlign=middle;whiteSpace=wrap;rounded=0;" vertex="1" parent="1">
          <mxGeometry x="400" y="240" width="60" height="30" as="geometry" />
        </mxCell>
        <mxCell id="N2f2klJ6p7CAeLHiZnP2-10" value="(n,0)" style="text;html=1;align=center;verticalAlign=middle;whiteSpace=wrap;rounded=0;" vertex="1" parent="1">
          <mxGeometry x="390" y="350" width="60" height="30" as="geometry" />
        </mxCell>
        <mxCell id="N2f2klJ6p7CAeLHiZnP2-17" value="matriculado/&lt;div&gt;possui&lt;/div&gt;" style="rhombus;whiteSpace=wrap;html=1;" vertex="1" parent="1">
          <mxGeometry x="347.5" y="260" width="92.5" height="80" as="geometry" />
        </mxCell>
        <mxCell id="N2f2klJ6p7CAeLHiZnP2-19" value="" style="edgeStyle=orthogonalEdgeStyle;rounded=0;orthogonalLoop=1;jettySize=auto;html=1;exitX=1;exitY=0.5;exitDx=0;exitDy=0;entryX=0;entryY=0.5;entryDx=0;entryDy=0;endArrow=none;endFill=0;" edge="1" parent="1" source="N2f2klJ6p7CAeLHiZnP2-4" target="N2f2klJ6p7CAeLHiZnP2-18">
          <mxGeometry relative="1" as="geometry">
            <mxPoint x="220" y="160" as="sourcePoint" />
            <mxPoint x="350" y="160" as="targetPoint" />
          </mxGeometry>
        </mxCell>
        <mxCell id="N2f2klJ6p7CAeLHiZnP2-18" value="" style="rhombus;whiteSpace=wrap;html=1;" vertex="1" parent="1">
          <mxGeometry x="210" y="121.25" width="90" height="77.5" as="geometry" />
        </mxCell>
        <mxCell id="N2f2klJ6p7CAeLHiZnP2-20" value="1" style="text;html=1;align=center;verticalAlign=middle;whiteSpace=wrap;rounded=0;" vertex="1" parent="1">
          <mxGeometry x="280" y="95" width="60" height="30" as="geometry" />
        </mxCell>
        <mxCell id="N2f2klJ6p7CAeLHiZnP2-21" value="(n,0)" style="text;html=1;align=center;verticalAlign=middle;whiteSpace=wrap;rounded=0;" vertex="1" parent="1">
          <mxGeometry x="170" y="95" width="60" height="30" as="geometry" />
        </mxCell>
        <mxCell id="N2f2klJ6p7CAeLHiZnP2-23" value="possui/&lt;div&gt;reside&lt;/div&gt;" style="text;html=1;align=center;verticalAlign=middle;whiteSpace=wrap;rounded=0;" vertex="1" parent="1">
          <mxGeometry x="225" y="142.5" width="62.5" height="35" as="geometry" />
        </mxCell>
        <mxCell id="N2f2klJ6p7CAeLHiZnP2-71" style="edgeStyle=orthogonalEdgeStyle;rounded=0;orthogonalLoop=1;jettySize=auto;html=1;exitX=0.25;exitY=1;exitDx=0;exitDy=0;endArrow=oval;endFill=1;" edge="1" parent="1" source="N2f2klJ6p7CAeLHiZnP2-27">
          <mxGeometry relative="1" as="geometry">
            <mxPoint x="550.2413793103449" y="410" as="targetPoint" />
          </mxGeometry>
        </mxCell>
        <mxCell id="N2f2klJ6p7CAeLHiZnP2-72" style="edgeStyle=orthogonalEdgeStyle;rounded=0;orthogonalLoop=1;jettySize=auto;html=1;exitX=0.5;exitY=1;exitDx=0;exitDy=0;endArrow=oval;endFill=1;" edge="1" parent="1" source="N2f2klJ6p7CAeLHiZnP2-27">
          <mxGeometry relative="1" as="geometry">
            <mxPoint x="570.2413793103449" y="400" as="targetPoint" />
          </mxGeometry>
        </mxCell>
        <mxCell id="N2f2klJ6p7CAeLHiZnP2-73" style="edgeStyle=orthogonalEdgeStyle;rounded=0;orthogonalLoop=1;jettySize=auto;html=1;exitX=0.75;exitY=1;exitDx=0;exitDy=0;endArrow=oval;endFill=1;" edge="1" parent="1" source="N2f2klJ6p7CAeLHiZnP2-27">
          <mxGeometry relative="1" as="geometry">
            <mxPoint x="590.2413793103449" y="400" as="targetPoint" />
          </mxGeometry>
        </mxCell>
        <mxCell id="N2f2klJ6p7CAeLHiZnP2-74" style="edgeStyle=orthogonalEdgeStyle;rounded=0;orthogonalLoop=1;jettySize=auto;html=1;exitX=1;exitY=1;exitDx=0;exitDy=0;endArrow=oval;endFill=1;" edge="1" parent="1" source="N2f2klJ6p7CAeLHiZnP2-27">
          <mxGeometry relative="1" as="geometry">
            <mxPoint x="610.2413793103449" y="400" as="targetPoint" />
          </mxGeometry>
        </mxCell>
        <mxCell id="N2f2klJ6p7CAeLHiZnP2-88" style="edgeStyle=orthogonalEdgeStyle;rounded=0;orthogonalLoop=1;jettySize=auto;html=1;exitX=1;exitY=1;exitDx=0;exitDy=0;" edge="1" parent="1" source="N2f2klJ6p7CAeLHiZnP2-27">
          <mxGeometry relative="1" as="geometry">
            <mxPoint x="630" y="370.1428571428571" as="targetPoint" />
          </mxGeometry>
        </mxCell>
        <mxCell id="N2f2klJ6p7CAeLHiZnP2-27" value="Aluno/Curso" style="whiteSpace=wrap;html=1;aspect=fixed;" vertex="1" parent="1">
          <mxGeometry x="530" y="290" width="80" height="80" as="geometry" />
        </mxCell>
        <mxCell id="N2f2klJ6p7CAeLHiZnP2-49" style="edgeStyle=orthogonalEdgeStyle;rounded=0;orthogonalLoop=1;jettySize=auto;html=1;entryX=0;entryY=0.75;entryDx=0;entryDy=0;" edge="1" parent="1" source="N2f2klJ6p7CAeLHiZnP2-45" target="N2f2klJ6p7CAeLHiZnP2-27">
          <mxGeometry relative="1" as="geometry">
            <Array as="points">
              <mxPoint x="510" y="350" />
            </Array>
          </mxGeometry>
        </mxCell>
        <mxCell id="N2f2klJ6p7CAeLHiZnP2-45" value="matriculado" style="rhombus;whiteSpace=wrap;html=1;" vertex="1" parent="1">
          <mxGeometry x="480" y="190" width="60" height="55" as="geometry" />
        </mxCell>
        <mxCell id="N2f2klJ6p7CAeLHiZnP2-52" style="edgeStyle=orthogonalEdgeStyle;rounded=0;orthogonalLoop=1;jettySize=auto;html=1;entryX=1;entryY=0.75;entryDx=0;entryDy=0;" edge="1" parent="1" source="N2f2klJ6p7CAeLHiZnP2-46" target="N2f2klJ6p7CAeLHiZnP2-27">
          <mxGeometry relative="1" as="geometry">
            <Array as="points">
              <mxPoint x="620" y="350" />
            </Array>
          </mxGeometry>
        </mxCell>
        <mxCell id="N2f2klJ6p7CAeLHiZnP2-46" value="" style="rhombus;whiteSpace=wrap;html=1;" vertex="1" parent="1">
          <mxGeometry x="590" y="190" width="60" height="60" as="geometry" />
        </mxCell>
        <mxCell id="N2f2klJ6p7CAeLHiZnP2-53" value="1" style="text;html=1;align=center;verticalAlign=middle;whiteSpace=wrap;rounded=0;" vertex="1" parent="1">
          <mxGeometry x="450" y="168.75" width="60" height="30" as="geometry" />
        </mxCell>
        <mxCell id="N2f2klJ6p7CAeLHiZnP2-54" value="N" style="text;html=1;align=center;verticalAlign=middle;whiteSpace=wrap;rounded=0;" vertex="1" parent="1">
          <mxGeometry x="460" y="260" width="60" height="30" as="geometry" />
        </mxCell>
        <mxCell id="N2f2klJ6p7CAeLHiZnP2-55" value="N" style="text;html=1;align=center;verticalAlign=middle;whiteSpace=wrap;rounded=0;" vertex="1" parent="1">
          <mxGeometry x="610" y="160" width="60" height="30" as="geometry" />
        </mxCell>
        <mxCell id="N2f2klJ6p7CAeLHiZnP2-56" value="1" style="text;html=1;align=center;verticalAlign=middle;whiteSpace=wrap;rounded=0;" vertex="1" parent="1">
          <mxGeometry x="620" y="260" width="60" height="30" as="geometry" />
        </mxCell>
        <mxCell id="N2f2klJ6p7CAeLHiZnP2-59" value="possui" style="text;html=1;align=center;verticalAlign=middle;whiteSpace=wrap;rounded=0;" vertex="1" parent="1">
          <mxGeometry x="590" y="205" width="60" height="30" as="geometry" />
        </mxCell>
        <mxCell id="N2f2klJ6p7CAeLHiZnP2-63" value="&lt;font style=&quot;font-size: 10px;&quot;&gt;1&amp;nbsp; &amp;nbsp; &amp;nbsp; &amp;nbsp; &amp;nbsp; 2&amp;nbsp; &amp;nbsp; &amp;nbsp; &amp;nbsp; 3&amp;nbsp;&lt;/font&gt;" style="text;html=1;align=center;verticalAlign=middle;whiteSpace=wrap;rounded=0;" vertex="1" parent="1">
          <mxGeometry x="55" y="270" width="100" height="30" as="geometry" />
        </mxCell>
        <mxCell id="N2f2klJ6p7CAeLHiZnP2-79" value="&amp;nbsp; &amp;nbsp; &amp;nbsp; 1&amp;nbsp; &amp;nbsp; &amp;nbsp; &amp;nbsp;2&amp;nbsp; &amp;nbsp; &amp;nbsp; &amp;nbsp; &amp;nbsp;3&amp;nbsp; &amp;nbsp; &amp;nbsp; &amp;nbsp; 4" style="text;html=1;align=center;verticalAlign=middle;whiteSpace=wrap;rounded=0;" vertex="1" parent="1">
          <mxGeometry x="320" y="60" width="150" height="30" as="geometry" />
        </mxCell>
        <mxCell id="N2f2klJ6p7CAeLHiZnP2-80" value="1&amp;nbsp; &amp;nbsp; &amp;nbsp;2&amp;nbsp; &amp;nbsp; 3&amp;nbsp; &amp;nbsp; &amp;nbsp;4" style="text;html=1;align=center;verticalAlign=middle;whiteSpace=wrap;rounded=0;" vertex="1" parent="1">
          <mxGeometry x="520" y="410" width="130" height="30" as="geometry" />
        </mxCell>
        <mxCell id="N2f2klJ6p7CAeLHiZnP2-81" value="1&amp;nbsp; &amp;nbsp; &amp;nbsp; 2&amp;nbsp; &amp;nbsp; &amp;nbsp; 3" style="text;html=1;align=center;verticalAlign=middle;whiteSpace=wrap;rounded=0;" vertex="1" parent="1">
          <mxGeometry x="332.5" y="555" width="125" height="30" as="geometry" />
        </mxCell>
        <mxCell id="N2f2klJ6p7CAeLHiZnP2-82" value="1&amp;nbsp; &amp;nbsp; &amp;nbsp; 2&amp;nbsp; &amp;nbsp; &amp;nbsp; 3&amp;nbsp; &amp;nbsp; &amp;nbsp; 4" style="text;html=1;align=center;verticalAlign=middle;whiteSpace=wrap;rounded=0;" vertex="1" parent="1">
          <mxGeometry x="650" y="20" width="190" height="30" as="geometry" />
        </mxCell>
        <mxCell id="N2f2klJ6p7CAeLHiZnP2-83" value="1 -Id_curso (PK)&lt;div&gt;2-Nome&lt;/div&gt;&lt;div&gt;3- Carga horaria&lt;/div&gt;&lt;div&gt;4 - Valor sem desconto&lt;/div&gt;" style="text;html=1;align=center;verticalAlign=middle;whiteSpace=wrap;rounded=0;" vertex="1" parent="1">
          <mxGeometry x="560" y="20" width="160" height="30" as="geometry" />
        </mxCell>
        <mxCell id="N2f2klJ6p7CAeLHiZnP2-84" value="1- Id_aluno (PK)&lt;div&gt;2- Nome&lt;/div&gt;&lt;div&gt;3- CPF&lt;/div&gt;&lt;div&gt;4- Rg&lt;/div&gt;" style="text;html=1;align=center;verticalAlign=middle;whiteSpace=wrap;rounded=0;" vertex="1" parent="1">
          <mxGeometry x="270" y="20" width="100" height="30" as="geometry" />
        </mxCell>
        <mxCell id="N2f2klJ6p7CAeLHiZnP2-85" value="1- Id_uf (PK)&lt;div&gt;2- UF&lt;/div&gt;&lt;div&gt;3- Descricao_uf&lt;/div&gt;" style="text;html=1;align=center;verticalAlign=middle;whiteSpace=wrap;rounded=0;" vertex="1" parent="1">
          <mxGeometry x="145" y="250" width="110" height="30" as="geometry" />
        </mxCell>
        <mxCell id="N2f2klJ6p7CAeLHiZnP2-86" value="1- Id_telef (PK)&lt;div&gt;2- DDD&lt;/div&gt;&lt;div&gt;3- telefone&lt;/div&gt;" style="text;html=1;align=center;verticalAlign=middle;whiteSpace=wrap;rounded=0;" vertex="1" parent="1">
          <mxGeometry x="430" y="540" width="100" height="30" as="geometry" />
        </mxCell>
        <mxCell id="N2f2klJ6p7CAeLHiZnP2-87" value="&lt;span style=&quot;background-color: initial;&quot;&gt;1- Id_aluno&lt;/span&gt;&lt;div&gt;&lt;span style=&quot;background-color: initial;&quot;&gt;2- Id_curso&lt;/span&gt;&lt;/div&gt;&lt;div&gt;3- Data_inicio&lt;/div&gt;&lt;div&gt;4- Data_termino&lt;/div&gt;&lt;div&gt;5- Desconto&lt;/div&gt;" style="text;html=1;align=center;verticalAlign=middle;whiteSpace=wrap;rounded=0;" vertex="1" parent="1">
          <mxGeometry x="540" y="460" width="190" height="30" as="geometry" />
        </mxCell>
        <mxCell id="N2f2klJ6p7CAeLHiZnP2-89" value="5" style="text;html=1;align=center;verticalAlign=middle;whiteSpace=wrap;rounded=0;" vertex="1" parent="1">
          <mxGeometry x="590" y="370" width="60" height="30" as="geometry" />
        </mxCell>
      </root>
    </mxGraphModel>
  </diagram>
</mxfile>
